<svg width="16" height="16" viewBox="0 0 16 16" fill="none" xmlns="http://www.w3.org/2000/svg">
<path d="M5.33334 1.33333V3.33333" stroke="#787486" stroke-width="1.3" stroke-miterlimit="10" stroke-linecap="round" stroke-linejoin="round"/>
<path d="M10.6667 1.33333V3.33333" stroke="#787486" stroke-width="1.3" stroke-miterlimit="10" stroke-linecap="round" stroke-linejoin="round"/>
<path d="M10.6667 2.33333C12.8867 2.45333 14 3.29999 14 6.43333V10.5533C14 13.3 13.3333 14.6733 10 14.6733H6C2.66667 14.6733 2 13.3 2 10.5533V6.43333C2 3.29999 3.11333 2.45999 5.33333 2.33333H10.6667Z" stroke="#787486" stroke-width="1.3" stroke-miterlimit="10" stroke-linecap="round" stroke-linejoin="round"/>
<path d="M13.8333 11.7333H2.16666" stroke="#787486" stroke-width="1.3" stroke-miterlimit="10" stroke-linecap="round" stroke-linejoin="round"/>
<path d="M8.00001 5.5C7.18001 5.5 6.48668 5.94667 6.48668 6.81333C6.48668 7.22667 6.68001 7.54 6.97334 7.74C6.56668 7.98 6.33334 8.36667 6.33334 8.82C6.33334 9.64667 6.96668 10.16 8.00001 10.16C9.02668 10.16 9.66668 9.64667 9.66668 8.82C9.66668 8.36667 9.43334 7.97333 9.02001 7.74C9.32001 7.53333 9.50668 7.22667 9.50668 6.81333C9.50668 5.94667 8.82001 5.5 8.00001 5.5ZM8.00001 7.39333C7.65334 7.39333 7.40001 7.18667 7.40001 6.86C7.40001 6.52667 7.65334 6.33333 8.00001 6.33333C8.34668 6.33333 8.60001 6.52667 8.60001 6.86C8.60001 7.18667 8.34668 7.39333 8.00001 7.39333ZM8.00001 9.33333C7.56001 9.33333 7.24001 9.11333 7.24001 8.71333C7.24001 8.31333 7.56001 8.1 8.00001 8.1C8.44001 8.1 8.76001 8.32 8.76001 8.71333C8.76001 9.11333 8.44001 9.33333 8.00001 9.33333Z" fill="#787486"/>
</svg>
