<svg width="30" height="30" viewBox="0 0 30 30" fill="none" xmlns="http://www.w3.org/2000/svg">
<g id="vuesax/linear/arrow-square-up">
<g id="vuesax/linear/arrow-square-up_2">
<g id="arrow-square-up">
<path id="Vector" d="M11.25 27.5H18.75C25 27.5 27.5 25 27.5 18.75V11.25C27.5 5 25 2.5 18.75 2.5H11.25C5 2.5 2.5 5 2.5 11.25V18.75C2.5 25 5 27.5 11.25 27.5Z" fill="#5030E5" fill-opacity="0.2"/>
<g id="Group">
<path id="Vector_2" d="M16.1375 9.80001L9.64998 16.2875C9.39998 16.5375 9.16249 17.025 9.11249 17.375L8.76249 19.85C8.63749 20.75 9.26249 21.375 10.1625 21.25L12.6375 20.9C12.9875 20.85 13.475 20.6125 13.725 20.3625L20.2125 13.875C21.325 12.7625 21.8625 11.4625 20.2125 9.81251C18.5625 8.15001 17.2625 8.67501 16.1375 9.80001Z" stroke="#5030E5" stroke-width="1.5" stroke-miterlimit="10" stroke-linecap="round" stroke-linejoin="round"/>
<path id="Vector_3" d="M15.2125 10.725C15.7625 12.6875 17.3 14.2375 19.275 14.7875" stroke="#5030E5" stroke-width="1.5" stroke-miterlimit="10" stroke-linecap="round" stroke-linejoin="round"/>
</g>
</g>
</g>
</g>
</svg>
