<svg width="16" height="16" viewBox="0 0 16 16" fill="none" xmlns="http://www.w3.org/2000/svg">
<path d="M3.6 1H12.4C13.1333 1 13.7333 1.6 13.7333 2.33333V3.8C13.7333 4.33333 13.4 5 13.0667 5.33333L10.2 7.86667C9.8 8.2 9.53333 8.86667 9.53333 9.4V12.2667C9.53333 12.6667 9.26666 13.2 8.93333 13.4L8 14C7.13333 14.5333 5.93333 13.9333 5.93333 12.8667V9.33333C5.93333 8.86667 5.66666 8.26667 5.4 7.93333L2.86666 5.26667C2.53333 4.93333 2.26666 4.33333 2.26666 3.93333V2.4C2.26666 1.6 2.86666 1 3.6 1Z" stroke="#787486" stroke-width="1.3" stroke-miterlimit="10" stroke-linecap="round" stroke-linejoin="round"/>
</svg>
