<svg width="16" height="16" viewBox="0 0 16 16" fill="none" xmlns="http://www.w3.org/2000/svg">
<g id="vuesax/linear/folder-2">
<g id="vuesax/linear/folder-2_2">
<g id="folder-2">
<path id="Vector" d="M14.3334 7.33334V11.3333C14.3334 14 13.6667 14.6667 11.0001 14.6667H4.33341C1.66674 14.6667 1.00008 14 1.00008 11.3333V4.66667C1.00008 2 1.66674 1.33334 4.33341 1.33334H5.33341C6.33341 1.33334 6.55341 1.62667 6.93341 2.13334L7.93341 3.46667C8.18674 3.8 8.33341 4 9.00008 4H11.0001C13.6667 4 14.3334 4.66667 14.3334 7.33334Z" stroke="#787486" stroke-miterlimit="10"/>
<path id="Vector_2" d="M5.33333 1.33334H11.3333C12.6667 1.33334 13.3333 2 13.3333 3.33334V4.25334" stroke="#787486" stroke-miterlimit="10" stroke-linecap="round" stroke-linejoin="round"/>
</g>
</g>
<path id="Vector_3" d="M9.33333 10H6" stroke="#787486" stroke-miterlimit="10" stroke-linecap="round" stroke-linejoin="round"/>
</g>
</svg>
