<svg width="21" height="21" viewBox="0 0 21 21" fill="none" xmlns="http://www.w3.org/2000/svg">
<g id="vuesax/linear/menu">
<g id="vuesax/linear/menu_2">
<g id="menu">
<g id="Group">
<g id="Group 609">
<path id="Vector" d="M15.1949 7.99994C16.5756 7.99994 17.6949 6.88065 17.6949 5.49994C17.6949 4.11923 16.5756 2.99994 15.1949 2.99994C13.8142 2.99994 12.6949 4.11923 12.6949 5.49994C12.6949 6.88065 13.8142 7.99994 15.1949 7.99994Z" stroke="#787486" stroke-width="1.5" stroke-miterlimit="10" stroke-linecap="round" stroke-linejoin="round"/>
<path id="Vector_2" d="M5.50001 7.99994C6.88072 7.99994 8 6.88065 8 5.49994C8 4.11923 6.88072 2.99994 5.50001 2.99994C4.11929 2.99994 3 4.11923 3 5.49994C3 6.88065 4.11929 7.99994 5.50001 7.99994Z" stroke="#787486" stroke-width="1.5" stroke-miterlimit="10" stroke-linecap="round" stroke-linejoin="round"/>
</g>
<g id="Group 610">
<path id="Vector_3" d="M15.1949 17.9999C16.5756 17.9999 17.6949 16.8807 17.6949 15.4999C17.6949 14.1192 16.5756 12.9999 15.1949 12.9999C13.8142 12.9999 12.6949 14.1192 12.6949 15.4999C12.6949 16.8807 13.8142 17.9999 15.1949 17.9999Z" stroke="#787486" stroke-width="1.5" stroke-miterlimit="10" stroke-linecap="round" stroke-linejoin="round"/>
<path id="Vector_4" d="M5.50001 17.9999C6.88072 17.9999 8 16.8807 8 15.4999C8 14.1192 6.88072 12.9999 5.50001 12.9999C4.11929 12.9999 3 14.1192 3 15.4999C3 16.8807 4.11929 17.9999 5.50001 17.9999Z" stroke="#787486" stroke-width="1.5" stroke-miterlimit="10" stroke-linecap="round" stroke-linejoin="round"/>
</g>
</g>
</g>
</g>
</g>
</svg>
