<svg width="24" height="24" viewBox="0 0 24 24" fill="none" xmlns="http://www.w3.org/2000/svg">
<g id="vuesax/linear/message-question">
<g id="vuesax/linear/message-question_2">
<g id="message-question">
<path id="Vector" d="M17 18.4301H13L8.54999 21.39C7.88999 21.83 7 21.3601 7 20.5601V18.4301C4 18.4301 2 16.4301 2 13.4301V7.42999C2 4.42999 4 2.42999 7 2.42999H17C20 2.42999 22 4.42999 22 7.42999V13.4301C22 16.4301 20 18.4301 17 18.4301Z" stroke="#787486" stroke-width="1.5" stroke-miterlimit="10" stroke-linecap="round" stroke-linejoin="round"/>
<path id="Vector_2" d="M12 11.36V11.15C12 10.47 12.42 10.11 12.84 9.82001C13.25 9.54001 13.66 9.18002 13.66 8.52002C13.66 7.60002 12.92 6.85999 12 6.85999C11.08 6.85999 10.34 7.60002 10.34 8.52002" stroke="#787486" stroke-width="1.5" stroke-linecap="round" stroke-linejoin="round"/>
<path id="Vector_3" d="M11.9955 13.75H12.0045" stroke="#787486" stroke-width="1.5" stroke-linecap="round" stroke-linejoin="round"/>
</g>
</g>
</g>
</svg>
