<svg width="16" height="16" viewBox="0 0 16 16" fill="none" xmlns="http://www.w3.org/2000/svg">
<g id="vuesax/outline/message">
<g id="vuesax/outline/message_2">
<g id="message">
<path id="Vector" d="M8.00001 15.2067C7.54001 15.2067 7.10668 14.9733 6.80001 14.5667L5.80001 13.2333C5.78001 13.2067 5.70001 13.1733 5.66668 13.1667H5.33334C2.55334 13.1667 0.833344 12.4133 0.833344 8.66667V5.33334C0.833344 2.38667 2.38668 0.833336 5.33334 0.833336H10.6667C13.6133 0.833336 15.1667 2.38667 15.1667 5.33334V8.66667C15.1667 11.6133 13.6133 13.1667 10.6667 13.1667H10.3333C10.28 13.1667 10.2333 13.1933 10.2 13.2333L9.20001 14.5667C8.89334 14.9733 8.46001 15.2067 8.00001 15.2067ZM5.33334 1.83334C2.94668 1.83334 1.83334 2.94667 1.83334 5.33334V8.66667C1.83334 11.68 2.86668 12.1667 5.33334 12.1667H5.66668C6.00668 12.1667 6.39334 12.36 6.60001 12.6333L7.60001 13.9667C7.83334 14.2733 8.16668 14.2733 8.40001 13.9667L9.40001 12.6333C9.62001 12.34 9.96668 12.1667 10.3333 12.1667H10.6667C13.0533 12.1667 14.1667 11.0533 14.1667 8.66667V5.33334C14.1667 2.94667 13.0533 1.83334 10.6667 1.83334H5.33334Z" fill="#787486"/>
<path id="Vector_2" d="M8.00001 8C7.62668 8 7.33334 7.7 7.33334 7.33333C7.33334 6.96666 7.63334 6.66666 8.00001 6.66666C8.36668 6.66666 8.66668 6.96666 8.66668 7.33333C8.66668 7.7 8.37334 8 8.00001 8Z" fill="#787486"/>
<path id="Vector_3" d="M10.6667 8C10.2933 8 10 7.7 10 7.33333C10 6.96666 10.3 6.66666 10.6667 6.66666C11.0333 6.66666 11.3333 6.96666 11.3333 7.33333C11.3333 7.7 11.04 8 10.6667 8Z" fill="#787486"/>
<path id="Vector_4" d="M5.33332 8C4.95999 8 4.66666 7.7 4.66666 7.33333C4.66666 6.96666 4.96666 6.66666 5.33332 6.66666C5.69999 6.66666 5.99999 6.96666 5.99999 7.33333C5.99999 7.7 5.70666 8 5.33332 8Z" fill="#787486"/>
</g>
</g>
</g>
</svg>
